PathFileType	4	(X/Y/Z)	\\147.46.242.158\로컬 디스크 (e)\MOCAP Data\Iguana Capture\iguana\Project 2\Capture day 7\Session 2\Take05.trc
DataRate	CameraRate	NumFrames	NumMarkers	Units	OrigDataRate	OrigDataStartFrame	OrigNumFrames
120.0	120.0	11	23	mm	120.0	55	17359
Frame#	Time	ana:head1			ana:head2			ana:bone1			ana:bone2			ana:bone3			ana:tail1			ana:tail2			ana:tail3			ana:tail4			ana:Rforefoot1			ana:Rforefoot2			ana:Rforefoot3			ana:Lforefoot1			ana:Lforefoot2			ana:Lforefoot3			ana:RhindLeg1			ana:RhindLeg2			ana:RhindLeg3			ana:RhindLeg4			ana:LhindLeg1			ana:LhindLeg2			ana:LhindLeg3			ana:LhindLeg4			
		X1	Y1	Z1	X2	Y2	Z2	X3	Y3	Z3	X4	Y4	Z4	X5	Y5	Z5	X6	Y6	Z6	X7	Y7	Z7	X8	Y8	Z8	X9	Y9	Z9	X10	Y10	Z10	X11	Y11	Z11	X12	Y12	Z12	X13	Y13	Z13	X14	Y14	Z14	X15	Y15	Z15	X16	Y16	Z16	X17	Y17	Z17	X18	Y18	Z18	X19	Y19	Z19	X20	Y20	Z20	X21	Y21	Z21	X22	Y22	Z22	X23	Y23	Z23	

7354	61.275	533.74567	-378.69873	47.35086	538.90948	-369.01605	47.87001	552.48193	-352.95871	41.85500	571.01978	-331.11719	42.46330	586.86310	-301.63809	42.91905	591.12006	-269.13147	44.10871	604.97382	-235.46500	44.37201	624.22327	-195.21805	37.41785	640.25739	-159.06459	24.43392	548.82147	-343.58719	20.44785	547.12299	-329.11417	16.24845	552.72986	-337.22104	1.96943	559.24158	-364.95770	31.46297	567.35815	-373.71484	30.72969	561.52942	-387.39798	22.01106	578.55499	-298.36514	36.98627	559.49396	-303.25446	35.89957	548.27209	-286.90012	26.07971	540.32416	-295.09048	23.83303	596.83551	-302.43182	37.65217	613.75714	-306.12518	29.02097	627.07544	-290.86093	20.86734	629.19598	-295.64920	9.91144	
7355	61.283	528.61346	-383.75098	48.54592	533.73059	-374.03351	48.79140	547.97943	-358.02502	42.62587	567.18945	-336.59402	42.75768	583.17859	-307.59314	43.10356	586.55719	-275.14429	43.72524	599.97589	-240.49590	43.42784	620.46539	-201.68703	37.77471	637.79877	-165.84724	26.33932	544.20789	-348.08871	20.82731	545.41302	-333.12982	17.33559	552.28845	-338.41989	2.66874	553.86798	-370.74313	31.26781	559.12946	-381.60605	29.91700	550.06976	-393.41687	21.19367	574.29150	-304.57642	36.98663	555.50684	-311.63385	35.00003	539.33569	-301.05780	23.10210	533.94507	-311.47458	20.44030	592.56519	-306.63855	35.56448	611.13214	-312.06027	31.88091	623.72449	-293.85159	20.88361	626.26874	-294.82300	7.69160	
7356	61.292	523.54718	-388.05347	49.51706	528.55988	-379.34854	50.40893	542.71857	-363.29626	43.88851	562.55182	-342.19540	43.48264	579.01410	-314.16635	43.63646	582.43140	-281.30008	43.75499	595.71002	-246.62971	43.34174	616.32233	-207.76105	38.38804	634.42133	-172.01622	28.30429	540.18597	-353.02921	21.23307	541.37262	-337.99945	18.39657	547.84064	-340.74500	4.89398	547.57947	-376.82822	31.33634	550.74493	-388.48868	28.52167	540.97504	-399.54636	19.14320	569.68860	-310.35361	36.93167	552.07477	-318.69040	33.06135	533.89862	-314.48453	19.18445	529.71680	-325.68848	16.97373	587.73651	-312.38785	35.51099	607.17456	-316.38800	32.47369	620.56293	-298.39996	21.97450	625.23633	-298.81177	10.23643	
7357	61.300	518.52924	-393.41849	50.90299	523.62164	-384.46326	50.97926	537.28760	-368.76004	44.36024	557.54309	-347.68628	44.01991	574.43597	-319.51318	43.74836	578.09772	-286.98141	42.85666	591.82574	-252.79578	42.74100	612.01251	-213.61247	38.46883	629.99725	-177.21758	29.07154	536.78619	-358.27945	22.03734	536.36157	-343.61475	19.19800	537.16565	-343.02274	16.42435	541.94641	-382.88553	31.15612	543.72607	-394.82144	27.16882	534.29907	-405.89667	17.27301	564.96765	-316.38766	36.42997	547.68994	-325.63095	31.79654	530.84625	-324.66986	15.64149	526.85095	-336.59821	13.45356	584.28479	-319.79251	38.38332	602.62842	-320.79138	32.31802	616.85004	-303.25812	21.82698	623.01642	-302.35434	12.63890	
7358	61.308	513.24731	-398.84799	51.86204	518.52332	-390.05945	51.62037	532.03113	-374.26233	44.89004	552.17175	-353.07230	44.07437	568.56982	-325.00168	44.41967	573.76782	-292.72400	41.63303	587.78247	-258.84790	41.63220	607.61597	-219.35522	37.60852	624.61304	-183.36685	30.85705	532.10638	-364.32043	22.09884	530.50983	-349.79630	19.67034	527.45575	-346.74884	22.68369	536.67737	-388.96524	31.22855	538.09137	-400.47641	25.69955	529.59320	-412.21887	15.85496	560.06354	-322.04321	35.58283	542.52264	-331.94943	30.43106	528.89282	-330.93088	11.16028	525.38892	-341.04694	7.04321	579.03015	-323.86563	36.49884	597.48560	-325.58774	31.43813	612.21606	-308.51846	22.65256	618.87213	-306.00504	13.45533	
7359	61.317	508.14035	-404.59070	51.48975	513.28156	-395.72067	51.58507	526.69647	-379.97141	44.46297	546.53235	-358.47870	43.55778	563.54895	-330.49591	43.33860	569.59326	-298.72894	39.89651	583.62225	-264.71970	40.15586	603.06433	-224.14470	36.28358	619.16223	-188.31786	30.47033	526.39520	-370.84344	21.42727	524.15063	-356.39578	20.06522	519.06598	-351.68890	23.61086	532.05164	-395.09583	30.74788	533.31873	-406.44009	24.39703	525.98523	-417.80710	12.99201	554.99054	-327.43390	33.96827	537.15430	-335.64297	27.39862	526.67462	-332.60577	6.91581	524.73737	-342.09116	0.30998	574.35876	-331.27216	37.77824	592.64563	-331.68689	31.70238	605.93579	-314.42203	22.74077	612.93811	-310.11716	14.33847	
7360	61.325	503.61130	-410.79074	50.88885	508.99551	-401.80057	50.96613	522.27930	-385.73074	43.46401	541.56097	-363.57654	41.46643	558.80994	-335.95609	40.71102	565.85797	-304.43295	38.11321	579.93414	-270.75070	38.11559	598.37408	-229.72766	35.22773	614.07581	-193.61365	30.07753	520.25562	-377.67966	20.52313	517.61731	-363.26489	20.63431	512.16058	-357.46823	21.01922	527.59418	-401.46066	29.37547	529.10645	-412.19144	21.88941	522.65607	-422.52670	8.84237	549.95172	-332.02667	31.52785	531.78204	-337.23422	23.81933	527.22888	-330.60626	1.85730	524.99567	-341.54861	-0.68976	568.75970	-337.45050	36.12683	587.83777	-339.23672	33.47061	598.89911	-319.97009	23.28163	606.57092	-316.74435	14.61903	
7361	61.333	499.00870	-416.49469	49.80528	504.30090	-407.75717	49.54166	517.65210	-391.52634	41.99252	535.55121	-368.87671	40.59505	553.72614	-340.37326	38.08306	562.91510	-310.38269	36.00259	576.42072	-276.57657	35.49117	593.45013	-234.94868	32.90825	609.47888	-197.66060	27.98465	514.29065	-384.66019	19.88691	511.24313	-370.25528	21.62926	506.90378	-363.71225	16.72207	524.44183	-406.97003	28.23510	528.06818	-417.38959	20.92701	523.34985	-426.24036	5.87940	545.04083	-336.65134	29.66059	526.74872	-339.68915	22.22724	526.81372	-330.51096	1.71526	524.85809	-340.90421	-0.75402	564.44818	-344.38693	36.77119	582.51355	-347.57047	33.65252	592.74152	-328.53235	23.54874	601.23492	-326.71964	14.30279	
7362	61.342	494.85773	-422.44943	48.77637	500.98511	-413.61014	48.47895	513.63513	-397.58356	41.33863	530.63959	-374.04297	38.95718	549.23035	-346.01529	36.72182	560.60504	-316.21866	34.00638	573.08337	-282.22513	32.85976	588.76306	-240.20850	29.93903	604.78455	-202.74854	26.37234	509.10318	-391.61618	20.01910	505.36139	-377.21863	23.30172	503.45978	-370.04623	12.53277	523.10822	-411.37225	27.59449	530.00073	-419.74280	20.44864	524.74927	-426.72513	5.23584	540.73645	-341.05530	27.94341	521.86621	-341.68228	20.29397	526.95941	-330.07507	2.73591	522.94080	-341.38058	0.34764	558.77246	-349.53870	33.03793	576.91144	-356.81815	32.65623	585.96674	-337.46719	19.26771	595.77728	-338.44772	11.91166	
7363	61.350	492.24921	-428.72589	48.41267	498.21280	-419.59070	47.68105	510.86261	-403.02069	40.17195	526.33313	-378.97958	37.73248	544.93652	-351.54184	34.65846	558.61383	-322.36411	32.54907	570.45111	-288.10263	30.56317	584.45526	-245.49814	27.03772	599.47638	-207.90521	23.16932	504.74020	-398.55865	20.97405	499.93246	-384.19177	25.65234	502.04150	-376.51270	8.31367	521.56152	-415.20279	26.82560	530.55872	-420.91251	19.89848	525.07312	-426.93747	4.47947	536.87781	-344.93509	26.46655	518.48474	-342.24237	18.32187	526.95929	-330.07504	2.73603	522.68994	-341.43689	0.30257	554.28210	-355.67429	31.20346	569.59723	-364.34189	28.77325	580.09222	-348.06387	16.66456	590.65167	-352.60342	11.47967	
7364	61.358	489.57639	-434.35516	47.41044	495.54529	-425.85760	48.13877	507.69812	-408.60248	40.28908	522.02942	-384.03299	37.61435	540.14594	-357.07782	34.76012	557.02814	-328.29382	30.73032	568.34198	-294.19806	28.71158	580.61432	-251.13091	24.07982	593.80975	-212.82611	19.14071	500.70807	-405.01370	21.11894	494.11807	-392.29160	28.45417	492.28036	-384.22009	10.68359	519.39569	-418.50052	26.77276	530.01215	-421.88605	21.38746	525.53729	-426.54019	3.56624	534.81812	-348.76672	24.09805	517.15503	-342.58832	17.41319	529.20868	-329.84903	2.51781	522.75317	-341.43045	0.24867	549.66864	-360.99170	28.74006	563.15106	-374.02155	29.07732	574.45288	-359.06946	14.94777	584.04797	-366.86768	9.55737	
